<svg width="22" height="15" viewBox="0 0 22 15" fill="none" xmlns="http://www.w3.org/2000/svg">
<path d="M21 8.36397C21.5523 8.36397 22 7.91625 22 7.36397C22 6.81168 21.5523 6.36397 21 6.36397L21 8.36397ZM0.292893 6.65686C-0.0976314 7.04738 -0.0976315 7.68055 0.292892 8.07107L6.65685 14.435C7.04738 14.8256 7.68054 14.8256 8.07107 14.435C8.46159 14.0445 8.46159 13.4113 8.07107 13.0208L2.41421 7.36397L8.07107 1.70711C8.46159 1.31659 8.46159 0.683423 8.07107 0.292899C7.68054 -0.0976255 7.04738 -0.0976255 6.65686 0.292899L0.292893 6.65686ZM21 7.36397L21 6.36397L1 6.36397L1 7.36397L1 8.36397L21 8.36397L21 7.36397Z" fill="#1E5515"/>
</svg>
