<svg width="14" height="11" viewBox="0 0 14 11" fill="none" xmlns="http://www.w3.org/2000/svg">
<path d="M4.76489 7.90694L12.4015 0.270323C12.5817 0.0901076 12.792 0 13.0323 0C13.2725 0 13.4828 0.0901076 13.663 0.270323C13.8432 0.450538 13.9333 0.664543 13.9333 0.912339C13.9333 1.16013 13.8432 1.37414 13.663 1.55436L5.39564 9.84425C5.21543 10.0245 5.00518 10.1146 4.76489 10.1146C4.5246 10.1146 4.31435 10.0245 4.13414 9.84425L0.25951 5.96963C0.0792947 5.78941 -0.00705843 5.5754 0.000450538 5.32761C0.0079595 5.07981 0.101822 4.86581 0.282037 4.68559C0.462252 4.50538 0.676257 4.41527 0.924053 4.41527C1.17185 4.41527 1.38585 4.50538 1.56607 4.68559L4.76489 7.90694Z" fill="#10310B"/>
</svg>
