<svg width="142" height="48" viewBox="0 0 142 48" fill="none" xmlns="http://www.w3.org/2000/svg">
<g clip-path="url(#clip0_4352_3682)">
<path d="M50.1277 20.931C50.0874 21.6676 49.9663 22.3991 49.7545 23.1101C49.3106 24.573 48.4632 25.9182 47.2829 26.8696C45.6638 28.1842 43.4141 28.6344 41.3864 28.3735C39.4445 28.128 37.6992 26.6599 36.5088 25.151C36.3424 24.9413 35.9994 24.9617 35.8077 25.1101C35.6009 25.2737 35.5353 25.5704 35.6715 25.8057C36.4332 27.1152 37.5428 28.1586 38.8694 28.8594C39.853 29.376 40.9627 29.6829 42.0724 29.7904C42.0623 30.0308 42.0623 30.2763 42.0522 30.5218C42.027 31.1459 42.032 31.7699 42.027 32.3939C42.0169 33.6574 42.0068 34.9208 42.0068 36.1791C42.0068 38.6906 42.0068 41.2021 41.9967 43.7136V47.3402C41.9362 47.3556 41.8757 47.3709 41.8152 47.3863C41.6235 47.4272 41.4318 47.4681 41.2401 47.509C41.0636 47.5397 40.8921 47.5704 40.7155 47.6011C40.6399 47.6113 40.5592 47.6216 40.4835 47.6318C40.4835 47.6318 40.4768 47.6335 40.4633 47.6369C40.4079 47.642 40.3524 47.6523 40.2918 47.6625C39.0258 47.8722 37.7295 47.8722 36.4584 47.7341C35.268 47.6011 34.0019 47.4937 32.8721 47.0794C31.9288 46.7315 31.1117 46.0154 30.5669 45.1714C29.9768 44.2507 29.654 43.0794 29.8002 41.9796C29.8406 41.6471 30.0373 40.4553 30.9856 39.509C31.1974 39.2942 32.1608 38.5883 33.4723 38.2763C34.3096 38.0819 35.1721 38.041 36.0145 37.8824C36.1456 37.8569 36.3121 37.7801 36.2869 37.6471C36.2667 37.5397 36.1356 37.5039 36.0296 37.4937C35.7522 37.4681 35.4798 37.4528 35.2024 37.4528C35.0662 37.4477 34.93 37.4528 34.7938 37.4528H34.7737C34.5164 37.4067 34.2592 37.376 34.0019 37.3505C33.5026 37.2891 33.0082 37.2072 32.519 37.0794C31.7876 36.885 31.0814 36.5934 30.4711 36.1331C29.886 35.6881 29.4471 35.1101 29.1496 34.4349C29.0083 34.1075 28.8923 33.775 28.8066 33.4374C28.7259 32.9617 28.6502 32.4349 28.5846 31.8415C28.5796 31.8313 28.5796 31.8211 28.5796 31.8057C28.5644 31.6165 28.5594 31.4221 28.5544 31.2277C28.5493 30.9157 28.5897 30.5781 28.5039 30.2763C28.4837 30.1689 28.4484 30.0717 28.3879 29.9643C28.2971 29.8211 28.0853 29.8159 27.9945 29.9643C27.7927 30.3121 27.8633 30.7418 27.8532 31.1254C27.8431 31.5141 27.823 31.8978 27.7826 32.2865C27.712 33.0026 27.5455 33.6727 27.258 34.3326C26.9655 35.0078 26.5216 35.5858 25.9365 36.0257C25.3262 36.486 24.62 36.7827 23.8886 36.9771C23.3993 37.1049 22.905 37.1868 22.4057 37.243C22.1484 37.2737 21.8912 37.3044 21.639 37.3454C21.3969 37.3863 21.1497 37.4016 20.9227 37.4988C20.8622 37.5244 20.842 37.5806 20.842 37.642C20.8168 37.775 20.9832 37.8517 21.1144 37.8773C21.9567 38.0359 22.8243 38.0768 23.6566 38.2712C24.9176 38.573 25.8608 39.2226 26.1433 39.5039C27.944 41.2737 27.8532 44.3786 25.8306 45.9234C24.8621 46.665 23.7423 47.1254 22.5772 47.4477C21.9971 47.6113 20.731 47.908 19.0362 47.995H16.9026C16.1006 47.9592 15.2986 47.8569 14.542 47.5806C14.6782 47.0538 14.7488 46.486 14.7942 45.9131C14.8446 45.3147 14.8598 44.7111 14.89 44.1484C14.9506 42.9668 15.001 41.7904 15.0414 40.6139C15.117 38.128 15.1372 35.6369 15.1019 33.151C15.0867 31.8927 15.0817 30.6292 14.9405 29.376C15.9846 29.0026 16.9984 28.4604 17.8004 27.6829C18.0123 27.4783 18.1384 27.284 18.3402 27.018C18.5016 26.8134 18.6378 26.5832 18.7739 26.353C18.9202 26.0922 18.5873 25.8569 18.3755 26.041C18.1838 26.2098 17.982 26.3735 17.7752 26.5167C17.6743 26.5883 17.5735 26.6548 17.4726 26.7213L17.4524 26.7315C17.4524 26.7315 17.4726 26.7264 17.4776 26.7264C17.4726 26.7315 17.4524 26.7418 17.4171 26.752C17.407 26.7571 17.2809 26.8441 17.2658 26.8543C17.2456 26.8645 17.2254 26.8799 17.2204 26.885C17.1901 26.9055 17.1548 26.931 17.1195 26.9515C16.6857 27.2482 16.2317 27.5295 15.7626 27.7648C15.6517 27.8211 15.5357 27.8722 15.4197 27.9285L15.3642 27.9489C15.3642 27.9489 15.3339 27.9643 15.3289 27.9694C15.2582 27.995 15.1876 28.0257 15.117 28.0512C14.8648 28.1484 14.6076 28.2354 14.3503 28.307C14.0981 28.3786 13.8459 28.44 13.5887 28.4911C13.4575 28.5167 13.3213 28.5423 13.1902 28.5627C13.165 28.5627 13.1397 28.5627 13.1145 28.573C13.0439 28.5781 12.9733 28.5883 12.9027 28.5985C12.363 28.6548 11.8232 28.6702 11.2835 28.6395C11.1574 28.6344 11.0313 28.6241 10.9052 28.6088C10.8447 28.6037 10.7892 28.5985 10.7287 28.5934C10.6934 28.5883 10.6631 28.5832 10.6228 28.5781H10.6026C10.3353 28.5321 10.0629 28.4809 9.79554 28.4195C9.24574 28.2916 8.70603 28.1126 8.1764 27.8978C8.15118 27.8876 8.13101 27.8773 8.10579 27.8671C8.0957 27.862 8.08561 27.8569 8.07552 27.8569C8.07048 27.8569 8.06544 27.8517 8.05535 27.8517C8.00995 27.8313 7.96455 27.8057 7.9242 27.7904C7.7981 27.729 7.66695 27.6676 7.54085 27.6062C7.28865 27.4783 7.03645 27.3402 6.79434 27.1919C6.54718 27.0487 6.30506 26.8901 6.07304 26.7264C5.96207 26.6497 5.8511 26.573 5.74013 26.4911C5.71491 26.4707 5.68464 26.4502 5.64934 26.4246C5.62916 26.4042 5.52324 26.3274 5.48288 26.2968C5.47784 26.2968 5.46271 26.2814 5.45262 26.2712C5.01379 25.9387 4.60017 25.5551 4.21178 25.1612C3.82339 24.7673 3.42491 24.3223 3.07183 23.862C3.07183 23.8569 3.0567 23.8415 3.04661 23.8313C3.04156 23.8262 3.04156 23.8211 3.03652 23.8159C2.99112 23.7597 2.95077 23.6983 2.90538 23.642C2.81963 23.5193 2.73388 23.4016 2.65317 23.284C2.48672 23.0384 2.33035 22.7929 2.17903 22.5423C1.87639 22.041 1.60401 21.5244 1.35685 20.9873C1.30137 20.8645 1.24588 20.7367 1.1904 20.6139C1.18031 20.5934 1.17527 20.5781 1.17022 20.5576C1.13491 20.4758 1.09961 20.3888 1.0643 20.3019C0.963417 20.041 0.86758 19.7699 0.776787 19.5039C0.595202 18.9413 0.44388 18.3786 0.317779 17.8006C0.262295 17.5244 0.211854 17.243 0.166458 16.9617C0.151326 16.885 0.141238 16.8134 0.131149 16.7418C0.131149 16.7315 0.126105 16.7213 0.126105 16.706C0.126105 16.706 0.126105 16.6855 0.121061 16.665C0.121061 16.6599 0.121061 16.6548 0.116017 16.6344C0.100885 16.4962 0.085753 16.3633 0.0706209 16.2303C-0.0403481 15.064 -0.020172 13.9029 0.116017 12.7367C0.116017 12.7162 0.121061 12.6906 0.126105 12.665C0.136193 12.5985 0.141238 12.5372 0.15637 12.4707C0.176546 12.3172 0.201766 12.1638 0.23203 12.0154C0.282471 11.7392 0.342999 11.4681 0.413616 11.2021C0.539717 10.6753 0.701127 10.1535 0.887756 9.64202C0.933153 9.50903 0.983593 9.38116 1.03403 9.25328C1.05421 9.19701 1.07943 9.14075 1.09961 9.08448C1.10465 9.06913 1.12483 9.02821 1.12987 9.01798C1.13491 9.00775 1.13491 9.00264 1.13491 9.00264C1.24588 8.74688 1.3619 8.49624 1.48295 8.25072C1.72002 7.75967 1.98736 7.28397 2.27487 6.82361C2.42115 6.58832 2.57247 6.36325 2.73388 6.13307C2.80954 6.03077 2.8852 5.92335 2.96086 5.82105C2.99617 5.7699 3.03652 5.72387 3.07183 5.67272C3.092 5.64202 3.11722 5.61133 3.1374 5.58576C3.47535 5.15609 3.82844 4.74688 4.20674 4.35814C4.59009 3.96428 4.99361 3.58576 5.41227 3.23282C5.51315 3.15098 5.61403 3.06913 5.71491 2.99241C5.71491 2.98218 5.73004 2.97706 5.74013 2.96683C5.81075 2.91568 5.87632 2.86453 5.94694 2.81338C6.15879 2.65481 6.38072 2.50136 6.59762 2.35302C7.06671 2.04612 7.55599 1.75967 8.05535 1.50903C8.31259 1.37604 8.57993 1.23282 8.85231 1.13052C8.88257 1.11517 8.92797 1.09982 8.94814 1.09471C9.01371 1.06402 9.08433 1.03844 9.15495 1.00775C9.29618 0.956602 9.43742 0.905451 9.57865 0.8543C10.1436 0.649697 10.7186 0.486014 11.3037 0.353022C11.5862 0.286526 11.8737 0.23026 12.1612 0.184224C12.2873 0.158648 12.4184 0.153533 12.5445 0.122843C12.5395 0.122843 12.5345 0.122843 12.5345 0.127958C12.5748 0.122843 12.6253 0.112612 12.6454 0.107497C12.7312 0.0972672 12.8169 0.087037 12.8976 0.0819219C14.083 -0.0459553 15.2784 -0.0357251 16.4587 0.112612C16.4839 0.112612 16.5041 0.117728 16.5293 0.117728C16.5949 0.127958 16.6554 0.138188 16.716 0.148418C16.8774 0.173994 17.0338 0.199569 17.1901 0.23026C17.4827 0.286526 17.7752 0.347907 18.0678 0.424633C18.6378 0.567855 19.2027 0.746884 19.7525 0.956602C19.8786 1.00775 20.0047 1.0589 20.1358 1.11006C20.156 1.12029 20.1762 1.13052 20.1964 1.14075L20.4234 1.24305C20.6856 1.36069 20.9429 1.49369 21.1951 1.62668C21.7146 1.91312 22.214 2.23026 22.6881 2.5832C22.7436 2.62412 22.7991 2.67016 22.8546 2.71108C22.8697 2.72131 22.8798 2.73154 22.8899 2.74177C23.016 2.83896 23.132 2.94126 23.2531 3.04356C23.475 3.23793 23.6868 3.44254 23.8937 3.65737C24.0904 3.86197 24.282 4.07681 24.4586 4.30187C24.4838 4.33256 24.509 4.36325 24.5292 4.38883C24.5393 4.40417 24.5595 4.42975 24.5746 4.44509C24.5948 4.47578 24.615 4.50136 24.62 4.51159C24.6553 4.55763 24.6856 4.60366 24.7158 4.6497C25.1345 5.17655 25.4825 5.72898 25.765 6.30699C26.0878 6.9566 26.2997 7.6011 26.4661 8.3121C26.5872 8.82361 26.4661 9.90289 27.0462 10.1791C27.369 10.3326 27.5708 9.96428 27.596 9.69318C27.6515 9.06914 27.5809 8.43998 27.5304 7.82617C27.5001 7.47834 27.4497 7.1254 27.3841 6.78269C27.3236 6.47578 27.2025 6.18422 27.1269 5.88243C27.0916 5.74944 27.0462 5.61133 27.0058 5.47834C26.9705 5.38116 26.9403 5.28908 26.8999 5.19701C26.8949 5.19701 26.8949 5.18167 26.8949 5.17655C26.8898 5.17144 26.8898 5.16632 26.8898 5.16121C26.8747 5.11517 26.8545 5.07425 26.8394 5.02821C26.6981 4.6855 26.5468 4.36325 26.3451 4.05123C26.2795 3.94893 26.2038 3.84663 26.1332 3.74433C26.1837 3.7341 26.2391 3.72898 26.2896 3.71875C26.3047 3.71875 26.3451 3.70852 26.3652 3.70852C26.4005 3.70341 26.4308 3.69829 26.4661 3.69318C26.6477 3.67272 26.8242 3.64714 27.0058 3.61645C27.0512 3.61133 27.0966 3.60622 27.142 3.59599C27.1471 3.59599 27.1572 3.59599 27.1672 3.59087C27.2429 3.58064 27.3186 3.57553 27.3892 3.5653C27.7019 3.53461 28.0146 3.51415 28.3274 3.50903C28.6502 3.50392 28.9781 3.51415 29.2958 3.53972C29.4471 3.55507 29.5934 3.5653 29.7397 3.58064C29.8154 3.59087 29.886 3.59599 29.9616 3.60622C29.9919 3.61133 30.0121 3.61133 30.0171 3.61133C30.0474 3.61645 30.0827 3.62668 30.113 3.63179C30.7334 3.72898 31.3437 3.88243 31.9339 4.09727C32.0751 4.14842 32.2113 4.19957 32.3475 4.25584C32.3626 4.26095 32.3777 4.27118 32.3929 4.2763C32.408 4.28141 32.4484 4.30187 32.4635 4.30699C32.5392 4.34279 32.6148 4.3786 32.6905 4.4144C32.9729 4.5474 33.2453 4.69573 33.5127 4.85942C33.7699 5.01287 34.0171 5.17655 34.2541 5.35558C34.3096 5.3965 34.3651 5.43742 34.4206 5.47834C34.4408 5.4988 34.4609 5.50903 34.4811 5.52949C34.6022 5.62668 34.7182 5.72387 34.8291 5.82617C35.273 6.21491 35.6765 6.64458 36.0448 7.11006C36.075 7.14586 36.1154 7.18167 36.1406 7.2277C36.1406 7.23282 36.1507 7.24305 36.1557 7.25328C36.1759 7.27885 36.1961 7.30443 36.2163 7.33512C36.3071 7.45788 36.3978 7.58576 36.4836 7.71364C36.64 7.95405 36.7963 8.20469 36.9325 8.46044C37.0939 8.74688 37.2352 9.03844 37.3663 9.34023C37.3764 9.36581 37.3915 9.39139 37.4016 9.42208C37.4117 9.43742 37.4117 9.44765 37.4167 9.45788C37.442 9.52949 37.4722 9.6011 37.4974 9.67272C37.558 9.82617 37.6135 9.97962 37.6589 10.1331C37.7648 10.4502 37.8505 10.7776 37.9211 11.1049C37.9565 11.2635 37.9867 11.4221 38.0119 11.5858C38.017 11.6113 38.022 11.6369 38.022 11.6676C37.5832 11.8875 37.1545 12.1382 36.7459 12.4093C35.1873 13.4579 33.8758 14.8185 33.1444 16.5832C33.1041 16.6855 33.0637 16.798 33.1041 16.8952C33.1545 17.0333 33.3361 17.0794 33.4723 17.0333C33.6085 16.9822 33.7144 16.8696 33.8102 16.7622C35.6362 14.7622 37.9111 13.1049 40.5188 12.4349C42.0119 12.0512 43.6159 12.0052 45.0736 12.5065C48.4783 13.6778 50.2992 17.4425 50.1277 20.9259V20.931Z" fill="#396039"/>
<path d="M37.1797 32.6087C34.7283 32.8747 34.5114 33.0946 34.2491 35.5806C33.9868 33.0946 33.7699 32.8747 31.3185 32.6087C33.7699 32.3427 33.9868 32.1228 34.2491 29.6368C34.5114 32.1228 34.7283 32.3427 37.1797 32.6087Z" fill="#FAF0E6"/>
<path d="M48.1251 25.2839C48.1251 25.2839 48.11 25.3094 48.1 25.3298C48.0949 25.3401 48.0899 25.3452 48.0849 25.3554C48.0849 25.3554 48.0798 25.3656 48.0748 25.3656C48.0748 25.3656 48.0698 25.3707 48.0647 25.3758C48.0647 25.3758 48.0597 25.3809 48.0546 25.386C48.1 25.3145 48.1251 25.2839 48.1302 25.2788L48.1251 25.2839Z" fill="#FAF0E6"/>
<path d="M41.7444 28.1276H41.7343C41.7091 28.1276 41.689 28.1175 41.6638 28.1175C41.6285 28.1074 41.6235 28.0973 41.7494 28.1276H41.7444Z" fill="#FAF0E6"/>
<path d="M49.4821 18.936C49.467 18.8901 49.4569 18.8849 49.4972 19.0279C49.4972 19.0279 49.4972 19.0279 49.4972 19.0228C49.4921 18.9922 49.4821 18.9666 49.4821 18.936Z" fill="#FAF0E6"/>
<path d="M45.2147 12.7004C45.1291 12.6802 45.1039 12.6701 45.114 12.6701C45.1442 12.6802 45.1794 12.6903 45.2096 12.7004H45.2147Z" fill="#FAF0E6"/>
<path d="M45.3055 27.5601C45.3055 27.5601 45.3004 27.5601 45.2954 27.5652C45.2954 27.5652 45.2904 27.5652 45.2853 27.5702C45.2853 27.5702 45.2803 27.5702 45.2753 27.5753C45.2551 27.5854 45.2299 27.6005 45.2098 27.6056C45.2652 27.5753 45.2904 27.5601 45.3004 27.5601H45.3055Z" fill="#FAF0E6"/>
<path d="M49.023 23.6931C49.023 23.6931 49.0079 23.7391 48.9979 23.7646C48.9979 23.7748 48.9878 23.785 48.9878 23.7952C48.9878 23.7952 48.9878 23.8003 48.9878 23.8054C49.013 23.734 49.023 23.7033 49.0331 23.6931H49.023Z" fill="#FAF0E6"/>
<path d="M69.1034 20.2865C68.7251 20.2302 68.3418 20.2967 67.9534 20.4808C67.4944 20.7212 67.0152 20.89 66.5158 20.9872C66.0165 21.0793 65.5222 21.1253 65.0228 21.1253C64.1199 21.1253 63.2776 20.9923 62.5058 20.7212C61.729 20.4501 61.0582 20.0358 60.4882 19.4732C59.9182 18.9105 59.4693 18.2097 59.1465 17.3709C58.8237 16.5269 58.6623 15.5397 58.6623 14.399C58.6623 13.4271 58.8035 12.5371 59.091 11.734C59.3785 10.931 59.7972 10.2353 60.352 9.64707C60.9069 9.05884 61.5727 8.60359 62.3596 8.28646C63.1414 7.96932 64.0342 7.81076 65.0279 7.81076C65.5625 7.81076 66.072 7.86702 66.5612 7.97955C67.0505 8.09209 67.5146 8.25065 67.9584 8.45526C68.3468 8.64452 68.7302 8.71613 69.1085 8.68032C69.4868 8.64451 69.7945 8.45526 70.0366 8.11766C70.3846 7.68799 70.5208 7.21229 70.4351 6.68544C70.3493 6.15858 70.0719 5.78006 69.5927 5.53454C68.9118 5.1816 68.1804 4.9105 67.4086 4.72124C66.6319 4.53198 65.8399 4.43991 65.0279 4.43991C63.5903 4.43991 62.2637 4.68544 61.0431 5.1816C59.8274 5.67776 58.7682 6.3683 57.8754 7.25833C56.9826 8.14835 56.2916 9.19694 55.8023 10.4143C55.313 11.6317 55.0709 12.9565 55.0709 14.399C55.0709 16.0614 55.3382 17.5243 55.8729 18.7877C56.4076 20.0512 57.139 21.0998 58.0721 21.9438C59.0053 22.7877 60.0645 23.422 61.2549 23.8517C62.4453 24.2813 63.7013 24.4962 65.0329 24.4962C65.5676 24.4962 66.0921 24.4553 66.6117 24.3683C67.1262 24.2813 67.6407 24.1637 68.1451 24.0051C68.6495 23.8466 69.1438 23.6471 69.623 23.4016C70.082 23.1765 70.3645 22.8184 70.4653 22.3223C70.5662 21.8261 70.4351 21.3453 70.0669 20.8798C69.8096 20.5422 69.4918 20.3478 69.1135 20.2916L69.1034 20.2865Z" fill="#10310B"/>
<path d="M83.5698 9.92328C82.4349 9.25832 81.1688 8.92584 79.7666 8.92584C78.3643 8.92584 77.0983 9.25832 75.9633 9.92328C74.8284 10.5882 73.9255 11.5038 73.2547 12.6701C72.5838 13.8414 72.2459 15.1918 72.2459 16.7212C72.2459 18.2507 72.5838 19.6062 73.2547 20.7724C73.9255 21.9437 74.8335 22.8542 75.9633 23.509C77.0983 24.1637 78.3643 24.4911 79.7666 24.4911C81.1688 24.4911 82.4349 24.1637 83.5698 23.509C84.7047 22.8542 85.6076 21.9437 86.2784 20.7724C86.9493 19.6062 87.2872 18.2507 87.2872 16.7212C87.2872 15.1918 86.9493 13.8363 86.2784 12.6701C85.6076 11.5038 84.7047 10.5831 83.5698 9.92328ZM83.4033 19.1816C83.025 19.8824 82.5206 20.4297 81.88 20.8235C81.2394 21.2174 80.5383 21.4118 79.7666 21.4118C78.9948 21.4118 78.2886 21.2174 77.6531 20.8235C77.0175 20.4297 76.5081 19.8824 76.1298 19.1816C75.7515 18.4808 75.5649 17.6624 75.5649 16.7264C75.5649 15.7903 75.7515 14.9463 76.1298 14.2455C76.5081 13.5448 77.0125 12.9975 77.6531 12.6036C78.2937 12.2097 78.9948 12.0154 79.7666 12.0154C80.5383 12.0154 81.2445 12.2097 81.88 12.6036C82.5156 12.9975 83.025 13.5448 83.4033 14.2455C83.7816 14.9463 83.9682 15.7749 83.9682 16.7264C83.9682 17.6778 83.7766 18.4808 83.4033 19.1816Z" fill="#10310B"/>
<path d="M98.0916 24.1432C98.6918 23.9079 99.2114 23.6266 99.6552 23.289C99.9831 23.0384 100.261 22.7877 100.487 22.532C100.493 23.0077 100.649 23.4015 100.957 23.7238C101.269 24.0512 101.668 24.2148 102.147 24.2148C102.626 24.2148 103.025 24.0512 103.337 23.7238C103.65 23.3964 103.806 22.9923 103.806 22.5013V5.17136C103.806 4.66497 103.65 4.25576 103.337 3.93862C103.025 3.62149 102.626 3.46292 102.147 3.46292C101.668 3.46292 101.269 3.6266 100.957 3.95397C100.644 4.28134 100.487 4.69054 100.487 5.17648V10.6854C100.326 10.532 100.15 10.3785 99.9478 10.2251C99.4585 9.85167 98.8835 9.54476 98.2177 9.29924C97.5519 9.05883 96.8255 8.93607 96.0336 8.93607C94.7978 8.93607 93.673 9.26855 92.6591 9.93351C91.6453 10.5985 90.8382 11.5141 90.238 12.6803C89.6377 13.8517 89.3401 15.2021 89.3401 16.7315C89.3401 18.2609 89.6377 19.5857 90.238 20.757C90.8382 21.9284 91.6554 22.844 92.6844 23.5038C93.7184 24.1688 94.8684 24.5013 96.1395 24.5013C96.8407 24.5013 97.4913 24.3836 98.0916 24.1483V24.1432ZM93.0273 19.11C92.6844 18.399 92.5179 17.6061 92.5179 16.7263C92.5179 15.8466 92.6894 15.023 93.0273 14.312C93.3703 13.601 93.8445 13.0384 94.4498 12.6292C95.0601 12.22 95.7612 12.0102 96.5531 12.0102C97.3451 12.0102 98.0764 12.2148 98.6817 12.6292C99.2921 13.0384 99.7662 13.601 100.104 14.312C100.447 15.023 100.614 15.8261 100.614 16.7263C100.614 17.6266 100.442 18.399 100.104 19.11C99.7612 19.821 99.287 20.3836 98.6817 20.7928C98.0714 21.2021 97.3652 21.4118 96.5531 21.4118C95.741 21.4118 95.0601 21.2072 94.4498 20.7928C93.8394 20.3836 93.3653 19.821 93.0273 19.11Z" fill="#10310B"/>
<path d="M116.886 24.0307C117.753 23.7238 118.424 23.3606 118.903 22.9514C119.418 22.5422 119.68 22.0819 119.68 21.5755C119.68 21.2021 119.544 20.8747 119.282 20.5934C119.014 20.312 118.676 20.1739 118.273 20.1739C117.975 20.1739 117.662 20.2558 117.33 20.4246C117.128 20.5371 116.901 20.6752 116.654 20.8287C116.407 20.9872 116.079 21.1253 115.67 21.2379C115.267 21.3504 114.722 21.4067 114.036 21.4067C113.299 21.4067 112.603 21.2225 111.948 20.8593C111.292 20.4962 110.757 19.9642 110.344 19.2583C110.101 18.8491 109.94 18.3836 109.839 17.8721H118.959C119.403 17.8721 119.791 17.734 120.119 17.4527C120.452 17.1714 120.623 16.8082 120.644 16.3581C120.644 15.3504 120.452 14.3939 120.079 13.4987C119.7 12.6036 119.191 11.8108 118.545 11.1304C117.9 10.4501 117.158 9.90794 116.321 9.51919C115.483 9.12533 114.591 8.93095 113.652 8.93095C112.437 8.93095 111.282 9.24809 110.197 9.88236C109.108 10.5166 108.23 11.4322 107.554 12.6189C106.883 13.8056 106.545 15.243 106.545 16.9258C106.545 18.3683 106.853 19.6573 107.474 20.798C108.089 21.9386 108.977 22.844 110.127 23.5038C111.277 24.1688 112.639 24.5013 114.207 24.5013C115.13 24.5013 116.023 24.3478 116.891 24.0409L116.886 24.0307ZM110.858 12.9923C111.206 12.6394 111.625 12.3836 112.104 12.2353C112.583 12.087 113.098 12.0102 113.652 12.0102C114.207 12.0102 114.762 12.1381 115.272 12.3888C115.776 12.6394 116.205 12.9821 116.543 13.4118C116.886 13.8414 117.072 14.3274 117.108 14.8696V15.0639H109.864C109.91 14.8338 109.96 14.6138 110.026 14.4194C110.228 13.821 110.505 13.3453 110.858 12.9872V12.9923Z" fill="#10310B"/>
<path d="M131.599 6.5729L134.363 8.06139C134.474 8.11766 134.585 8.15858 134.696 8.18927C134.807 8.21484 134.908 8.23019 134.999 8.23019C135.347 8.23019 135.629 8.13812 135.841 7.94886C136.053 7.7596 136.159 7.51919 136.159 7.2174C136.159 6.95653 136.028 6.70078 135.771 6.46037L133.39 4.32738C133.203 4.15858 132.996 4.01536 132.769 3.89259C132.537 3.76983 132.295 3.70845 132.038 3.70845C131.725 3.70845 131.402 3.83121 131.07 4.07162C130.737 4.31715 130.57 4.64963 130.57 5.07929C130.57 5.36062 130.656 5.63172 130.832 5.89259C131.009 6.15346 131.261 6.37853 131.594 6.56779L131.599 6.5729Z" fill="#10310B"/>
<path d="M141.531 9.40666C141.218 9.08952 140.82 8.93095 140.341 8.93095C139.861 8.93095 139.463 9.09464 139.15 9.422C138.837 9.74937 138.681 10.1535 138.681 10.6394V10.6803C138.52 10.5269 138.343 10.3734 138.141 10.22C137.652 9.84656 137.077 9.53965 136.411 9.29413C135.745 9.05372 135.019 8.93095 134.227 8.93095C132.991 8.93095 131.867 9.26344 130.853 9.9284C129.839 10.5934 129.032 11.509 128.432 12.6752C127.831 13.8466 127.534 15.1969 127.534 16.7264C127.534 18.2558 127.831 19.5806 128.432 20.7519C129.032 21.9233 129.849 22.8389 130.878 23.4987C131.912 24.1637 133.062 24.4962 134.333 24.4962C135.034 24.4962 135.685 24.3785 136.285 24.1432C136.885 23.9079 137.405 23.6266 137.849 23.289C138.177 23.0384 138.454 22.7877 138.681 22.532C138.686 23.0077 138.842 23.4015 139.15 23.7238C139.463 24.0512 139.861 24.2148 140.341 24.2148C140.82 24.2148 141.218 24.0512 141.531 23.7238C141.844 23.3964 142 22.9923 142 22.5013V10.6343C142 10.1279 141.844 9.71868 141.531 9.40154V9.40666ZM138.308 19.11C137.965 19.821 137.491 20.3836 136.885 20.7928C136.275 21.2021 135.569 21.4118 134.757 21.4118C133.945 21.4118 133.264 21.2072 132.653 20.7928C132.043 20.3836 131.569 19.821 131.231 19.11C130.888 18.399 130.722 17.6061 130.722 16.7264C130.722 15.8466 130.893 15.023 131.231 14.312C131.574 13.601 132.048 13.0384 132.653 12.6292C133.264 12.22 133.965 12.0102 134.757 12.0102C135.549 12.0102 136.28 12.2148 136.885 12.6292C137.496 13.0384 137.97 13.601 138.308 14.312C138.651 15.023 138.817 15.8261 138.817 16.7264C138.817 17.6266 138.646 18.399 138.308 19.11Z" fill="#10310B"/>
<path d="M69.1034 42.9054C68.7251 42.8491 68.3418 42.9156 67.9534 43.0998C67.4944 43.3453 67.0152 43.509 66.5158 43.6062C66.0165 43.6982 65.5222 43.7443 65.0228 43.7443C64.1199 43.7443 63.2776 43.6113 62.5058 43.3402C61.729 43.0691 61.0582 42.6547 60.4882 42.0921C59.9182 41.5294 59.4693 40.8287 59.1465 39.9898C58.8237 39.1458 58.6623 38.1586 58.6623 37.0179C58.6623 36.0461 58.8035 35.156 59.091 34.353C59.3785 33.5499 59.7972 32.8542 60.352 32.266C60.9069 31.6778 61.5727 31.2225 62.3596 30.9054C63.1414 30.5882 64.0342 30.4297 65.0279 30.4297C65.5625 30.4297 66.072 30.4859 66.5612 30.5985C67.0505 30.711 67.5146 30.8696 67.9584 31.0742C68.3468 31.2634 68.7302 31.3351 69.1085 31.2992C69.4868 31.2634 69.7945 31.0742 70.0366 30.7366C70.3846 30.3069 70.5208 29.8312 70.4351 29.3044C70.3493 28.7775 70.0719 28.399 69.5927 28.1535C68.9118 27.8005 68.1804 27.5294 67.4086 27.3402C66.6319 27.1509 65.8399 27.0588 65.0279 27.0588C63.5903 27.0588 62.2637 27.3044 61.0431 27.8005C59.8274 28.2967 58.7682 28.9872 57.8754 29.8773C56.9826 30.7673 56.2916 31.8159 55.8023 33.0333C55.313 34.2507 55.0709 35.5755 55.0709 37.0179C55.0709 38.6803 55.3382 40.1432 55.8729 41.4067C56.4076 42.6701 57.139 43.7187 58.0721 44.5627C59.0053 45.4016 60.0645 46.0409 61.2549 46.4706C62.4453 46.9003 63.7013 47.1151 65.0329 47.1151C65.5676 47.1151 66.0921 47.0742 66.6117 46.9872C67.1262 46.9003 67.6407 46.7826 68.1451 46.6241C68.6495 46.4655 69.1438 46.266 69.623 46.0205C70.082 45.7954 70.3645 45.4374 70.4653 44.9412C70.5662 44.445 70.4351 43.9642 70.0669 43.4987C69.8096 43.1611 69.4918 42.9668 69.1135 42.9105L69.1034 42.9054Z" fill="#10310B"/>
<path d="M83.4185 31.8261C82.9393 31.8261 82.5408 31.9898 82.2281 32.3171C81.9153 32.6445 81.759 33.0537 81.759 33.5396V40.665C81.759 41.8056 81.5118 42.6496 81.0124 43.2021C80.5131 43.7545 79.7565 44.0307 78.7426 44.0307C77.7288 44.0307 77.0024 43.7545 76.5031 43.2021C76.0037 42.6496 75.7565 41.8056 75.7565 40.665V33.5396C75.7565 33.0537 75.6002 32.6445 75.2874 32.3171C74.9747 31.9898 74.5762 31.8261 74.097 31.8261C73.6179 31.8261 73.2194 31.9898 72.9067 32.3171C72.5939 32.6445 72.4376 33.0537 72.4376 33.5396V40.665C72.4376 42.6496 72.9773 44.22 74.0567 45.376C75.1361 46.5371 76.6998 47.1151 78.7426 47.1151C80.7855 47.1151 82.3542 46.5371 83.4437 45.376C84.5332 44.2148 85.0779 42.6445 85.0779 40.665V33.5396C85.0779 33.0537 84.9216 32.6445 84.6088 32.3171C84.2961 31.9898 83.8976 31.8261 83.4185 31.8261Z" fill="#10310B"/>
<path d="M89.4764 31.8261C88.9972 31.8261 88.5987 31.9898 88.286 32.3171C87.9732 32.6445 87.8169 33.0537 87.8169 33.5396V45.1253C87.8169 45.6113 87.9732 46.0205 88.286 46.3427C88.5987 46.6701 88.9972 46.8338 89.4764 46.8338C89.9555 46.8338 90.354 46.6701 90.6667 46.3427C90.9795 46.0154 91.1358 45.6113 91.1358 45.1253V33.5396C91.1358 33.0537 90.9795 32.6445 90.6667 32.3171C90.354 31.9898 89.9555 31.8261 89.4764 31.8261Z" fill="#10310B"/>
<path d="M89.4764 26.665C88.8862 26.665 88.4474 26.7621 88.1599 26.9616C87.8723 27.156 87.7311 27.5294 87.7311 28.0716V28.6036C87.7311 29.1253 87.8572 29.4936 88.1195 29.6982C88.3767 29.9028 88.8206 30.0051 89.4461 30.0051C90.0716 30.0051 90.5255 29.9079 90.8029 29.7084C91.0804 29.5141 91.2165 29.1407 91.2165 28.5985V28.0665C91.2165 27.5448 91.0854 27.1765 90.8282 26.9719C90.5709 26.7673 90.117 26.665 89.4713 26.665H89.4764Z" fill="#10310B"/>
<path d="M102.833 39.2839C102.354 38.9463 101.829 38.6752 101.254 38.4706C100.679 38.266 100.119 38.087 99.5695 37.9386C99.0348 37.7903 98.5304 37.6368 98.0613 37.4731C97.5922 37.3146 97.2189 37.11 96.9415 36.8542C96.6641 36.6036 96.5279 36.2609 96.5279 35.8312C96.5279 35.3657 96.649 35.023 96.886 34.8082C97.1282 34.5934 97.4056 34.4552 97.7284 34.3887C98.0512 34.3223 98.3488 34.2916 98.6262 34.2916C99.3072 34.2916 99.9125 34.4143 100.437 34.6547C100.962 34.9003 101.38 35.2276 101.698 35.6368C101.935 35.8619 102.243 35.9898 102.611 36.0153C102.979 36.046 103.302 35.9437 103.579 35.7187C103.968 35.4015 104.144 35.0435 104.104 34.6547C104.064 34.266 103.948 33.9233 103.746 33.6471C103.358 33.1407 102.878 32.7366 102.308 32.4246C101.738 32.1176 101.138 31.8926 100.513 31.7494C99.8873 31.6113 99.287 31.5396 98.717 31.5396C97.8141 31.5396 96.9516 31.7187 96.1294 32.0716C95.3073 32.4297 94.6414 32.9309 94.1219 33.5857C93.6074 34.2404 93.3451 35.0332 93.3451 35.9693C93.3451 36.7928 93.5015 37.4731 93.8142 38.0153C94.127 38.5575 94.5355 38.9923 95.0298 39.3197C95.5292 39.6471 96.074 39.913 96.6742 40.1176C97.2744 40.3223 97.8595 40.5115 98.4295 40.6803C98.9844 40.8286 99.4837 40.9872 99.9377 41.156C100.392 41.3248 100.755 41.5294 101.032 41.7749C101.31 42.0205 101.446 42.3478 101.446 42.757C101.446 43.243 101.32 43.601 101.073 43.8363C100.825 44.0716 100.533 44.22 100.2 44.2864C99.8671 44.3529 99.5644 44.3939 99.287 44.4143C98.4043 44.4143 97.6628 44.266 97.0727 43.9642C96.4825 43.6675 95.9176 43.243 95.3829 42.7008C95.0702 42.3836 94.7474 42.2097 94.4145 42.1841C94.0815 42.1586 93.7688 42.2353 93.4763 42.4246C93.0173 42.7212 92.7751 43.0793 92.755 43.4885C92.7348 43.8977 92.8205 44.2353 93.0021 44.4962C93.7234 45.468 94.6263 46.1483 95.7108 46.532C96.8003 46.9156 97.8848 47.1049 98.9743 47.1049C99.8419 47.1049 100.689 46.9309 101.516 46.5882C102.349 46.2404 103.04 45.734 103.59 45.0588C104.144 44.3836 104.422 43.5703 104.422 42.6189C104.422 41.7954 104.276 41.1202 103.978 40.5831C103.68 40.0512 103.297 39.6164 102.818 39.2788L102.833 39.2839Z" fill="#10310B"/>
<path d="M108.008 26.665C107.418 26.665 106.979 26.7621 106.697 26.9616C106.409 27.156 106.268 27.5294 106.268 28.0716V28.6036C106.268 29.1253 106.399 29.4936 106.656 29.6982C106.914 29.9028 107.357 30.0051 107.983 30.0051C108.608 30.0051 109.062 29.9079 109.34 29.7084C109.617 29.5141 109.753 29.1407 109.753 28.5985V28.0665C109.753 27.5448 109.622 27.1765 109.365 26.9719C109.108 26.7673 108.654 26.665 108.008 26.665Z" fill="#10310B"/>
<path d="M108.008 31.8261C107.529 31.8261 107.131 31.9898 106.818 32.3171C106.505 32.6445 106.349 33.0537 106.349 33.5396V45.1253C106.349 45.6113 106.505 46.0205 106.818 46.3427C107.131 46.6701 107.529 46.8338 108.008 46.8338C108.487 46.8338 108.886 46.6701 109.199 46.3427C109.511 46.0154 109.668 45.6113 109.668 45.1253V33.5396C109.668 33.0537 109.511 32.6445 109.199 32.3171C108.886 31.9898 108.487 31.8261 108.008 31.8261Z" fill="#10310B"/>
<path d="M123.428 32.4143C122.717 31.8363 121.683 31.5448 120.316 31.5448C119.69 31.5448 119.11 31.642 118.575 31.8414C118.041 32.0358 117.562 32.2967 117.138 32.6138C116.714 32.931 116.346 33.2737 116.033 33.6368C115.917 33.7698 115.826 33.8977 115.731 34.0256V33.5397C115.731 33.0537 115.574 32.6445 115.262 32.3171C114.949 31.9898 114.55 31.8261 114.071 31.8261C113.592 31.8261 113.193 31.9898 112.881 32.3171C112.568 32.6445 112.412 33.0537 112.412 33.5397V45.1253C112.412 45.6113 112.568 46.0205 112.881 46.3427C113.193 46.6701 113.592 46.8338 114.071 46.8338C114.55 46.8338 114.949 46.6701 115.262 46.3427C115.574 46.0154 115.731 45.6113 115.731 45.1253V37.9437C115.731 37.3248 115.862 36.7724 116.129 36.2762C116.396 35.7801 116.785 35.3811 117.289 35.0844C117.794 34.7877 118.419 34.6343 119.156 34.6343C119.892 34.6343 120.492 34.7826 120.901 35.0844C121.304 35.3862 121.587 35.7801 121.743 36.2762C121.899 36.7724 121.98 37.3299 121.98 37.9437V45.1253C121.98 45.6113 122.137 46.0205 122.449 46.3427C122.762 46.6701 123.16 46.8338 123.64 46.8338C124.119 46.8338 124.517 46.6701 124.83 46.3427C125.143 46.0154 125.299 45.6113 125.299 45.1253V37.9437C125.299 36.7673 125.163 35.6931 124.901 34.7315C124.633 33.7698 124.144 32.9975 123.433 32.4195L123.428 32.4143Z" fill="#10310B"/>
<path d="M139.539 33.7443C138.893 33.064 138.151 32.5218 137.314 32.133C136.477 31.7391 135.584 31.5448 134.646 31.5448C133.43 31.5448 132.275 31.8619 131.191 32.4962C130.101 33.1304 129.223 34.046 128.548 35.2327C127.877 36.4194 127.539 37.8568 127.539 39.5397C127.539 40.9821 127.846 42.2711 128.467 43.4118C129.082 44.5524 129.97 45.4578 131.12 46.1177C132.27 46.7826 133.632 47.1151 135.201 47.1151C136.124 47.1151 137.016 46.9616 137.884 46.6496C138.752 46.3427 139.422 45.9796 139.902 45.5703C140.416 45.1611 140.678 44.7008 140.678 44.1944C140.678 43.821 140.542 43.4936 140.28 43.2123C140.013 42.931 139.675 42.7929 139.271 42.7929C138.974 42.7929 138.661 42.8798 138.328 43.0435C138.126 43.156 137.899 43.2941 137.652 43.4527C137.405 43.6113 137.077 43.7494 136.668 43.8568C136.265 43.9693 135.72 44.0256 135.034 44.0256C134.298 44.0256 133.602 43.8414 132.946 43.4783C132.29 43.1151 131.756 42.5831 131.342 41.8773C131.1 41.468 130.938 41.0026 130.838 40.4911H139.957C140.401 40.4911 140.789 40.353 141.117 40.0716C141.45 39.7903 141.622 39.4271 141.642 38.977C141.642 37.9693 141.45 37.0128 141.077 36.1177C140.699 35.2225 140.189 34.4297 139.544 33.7494L139.539 33.7443ZM131.846 35.6113C132.194 35.2583 132.613 35.0026 133.092 34.8542C133.571 34.7059 134.086 34.6292 134.641 34.6292C135.196 34.6292 135.75 34.757 136.26 35.0077C136.764 35.2583 137.193 35.601 137.531 36.0307C137.874 36.4604 138.061 36.9463 138.096 37.4885V37.6829H130.853C130.898 37.4527 130.948 37.2328 131.014 37.0384C131.216 36.4399 131.493 35.9642 131.846 35.6062V35.6113Z" fill="#10310B"/>
</g>
<defs>
<clipPath id="clip0_4352_3682">
<rect width="142" height="48" fill="white"/>
</clipPath>
</defs>
</svg>
